<svg width="46" height="76" viewBox="0 0 46 76" fill="none" xmlns="http://www.w3.org/2000/svg">
<path d="M43.5431 2.2564C42.0399 0.75158 40.2579 0 38.1997 0H7.80045C5.74161 0 3.96061 0.752204 2.45642 2.2564C0.952217 3.75977 0.200012 5.54139 0.200012 7.5996V68.4C0.200012 70.458 0.952217 72.2394 2.45642 73.7432C3.96061 75.2476 5.74161 76 7.80045 76H38.1997C40.2577 76 42.04 75.247 43.5429 73.7432C45.0473 72.2394 45.7997 70.458 45.7997 68.4V7.5996C45.7997 5.54139 45.0483 3.7606 43.5431 2.2564ZM18.2502 7.5996H27.751C28.3845 7.5996 28.7003 7.91633 28.7003 8.54979C28.7003 9.18304 28.3842 9.50018 27.751 9.50018H18.2502C17.6169 9.50018 17.3002 9.18304 17.3002 8.54979C17.3 7.91633 17.6167 7.5996 18.2502 7.5996ZM26.3558 71.7548C25.4249 72.6842 24.3069 73.1497 23.0003 73.1497C21.6943 73.1497 20.5763 72.6842 19.6458 71.7548C18.7154 70.8238 18.2502 69.7052 18.2502 68.4C18.2502 67.0933 18.716 65.9751 19.6458 65.0449C20.5756 64.1155 21.6945 63.6486 23.0003 63.6486C24.3071 63.6486 25.4251 64.1155 26.3558 65.0449C27.286 65.9751 27.7508 67.0933 27.7508 68.4C27.7508 69.7066 27.2854 70.824 26.3558 71.7548ZM40.1007 58.9004C40.1007 59.4143 39.9129 59.8612 39.5363 60.2364C39.1592 60.6122 38.715 60.7993 38.2012 60.7993H7.80045C7.28595 60.7993 6.8407 60.6115 6.4647 60.2364C6.0887 59.8612 5.9007 59.4143 5.9007 58.9004V17.1006C5.9007 16.5861 6.08849 16.1405 6.4647 15.7649C6.84091 15.3895 7.28595 15.2005 7.80045 15.2005H38.1997C38.715 15.2005 39.1597 15.3887 39.5363 15.7649C39.9129 16.1407 40.0999 16.5861 40.0999 17.1006V58.9002H40.1007V58.9004Z" fill="#4776E6"/>
</svg>
