<svg width="76" height="76" viewBox="0 0 76 76" fill="none" xmlns="http://www.w3.org/2000/svg">
<path d="M7.125 14.25V49.875C7.125 52.4875 9.2625 54.625 11.875 54.625H64.125C66.7375 54.625 68.875 52.4875 68.875 49.875V14.25C68.875 11.6375 66.7375 9.5 64.125 9.5H11.875C9.2625 9.5 7.125 11.6375 7.125 14.25Z" stroke="#4776E6" stroke-width="2" stroke-miterlimit="10" stroke-linecap="round" stroke-linejoin="round"/>
<path d="M7.125 45.125H68.875" stroke="#4776E6" stroke-width="2" stroke-miterlimit="10" stroke-linecap="round" stroke-linejoin="round"/>
<path d="M21.375 68.875H54.625" stroke="#4776E6" stroke-width="2" stroke-miterlimit="10" stroke-linecap="round" stroke-linejoin="round"/>
<path d="M30.875 54.625C30.875 59.6125 29.2125 65.55 26.6 68.875" stroke="#4776E6" stroke-width="2" stroke-miterlimit="10" stroke-linecap="round" stroke-linejoin="round"/>
<path d="M49.4 68.875C46.7875 65.55 45.125 59.6125 45.125 54.625" stroke="#4776E6" stroke-width="2" stroke-miterlimit="10" stroke-linecap="round" stroke-linejoin="round"/>
<path d="M16.625 21.375L23.75 28.5L16.625 35.625" stroke="#4776E6" stroke-width="2" stroke-miterlimit="10" stroke-linecap="round" stroke-linejoin="round"/>
<path d="M30.875 35.625H40.375" stroke="#4776E6" stroke-width="2" stroke-miterlimit="10" stroke-linecap="round" stroke-linejoin="round"/>
</svg>
