<svg width="76" height="76" viewBox="0 0 76 76" fill="none" xmlns="http://www.w3.org/2000/svg">
<path d="M30.7831 17.7478C23.874 17.7478 21.7534 17.8096 14.7759 17.8096C13.955 17.8096 13.2025 17.8714 12.5185 17.9951C11.766 18.1188 11.0819 18.3043 10.4662 18.5517C9.78218 18.799 9.16652 19.1082 8.55085 19.4792C7.93519 19.8503 7.38794 20.2832 6.84068 20.7779C6.29343 21.2726 5.81458 21.7673 5.40414 22.3238C4.9937 22.8804 4.65167 23.4369 4.37804 24.0553C4.10441 24.6737 3.89919 25.2921 3.76238 25.9105C3.62556 26.5907 3.55716 27.271 3.55716 27.9512V48.5435C3.55716 49.2856 3.62556 49.9658 3.76238 50.5842C3.89919 51.2644 4.10441 51.8828 4.37804 52.4394C4.65167 53.0578 4.9937 53.6143 5.40414 54.1709C5.81458 54.7274 6.29343 55.2221 6.84068 55.7168C7.38794 56.2116 8.0036 56.6444 8.61926 57.0155C9.23492 57.3865 9.85058 57.6957 10.5347 57.943C11.2187 58.1904 11.9028 58.3759 12.5869 58.4996C13.3393 58.6233 14.0918 58.6851 14.8443 58.6851H23.4635C23.7372 58.6851 24.0108 58.7469 24.216 58.8706C24.4212 58.9943 24.6265 59.118 24.8317 59.3035C25.5158 60.1074 26.1998 60.9113 26.9523 61.6534C27.7048 62.3954 28.4572 63.1375 29.3465 63.8177C30.1674 64.498 30.9883 65.1782 31.946 65.7966C32.8353 66.415 33.793 67.0334 34.6823 67.5899C35.5716 68.1465 36.5293 68.6412 37.5554 69.1359C38.5131 69.6306 39.5392 70.0635 40.5653 70.4963C40.7021 70.5582 40.8389 70.5582 40.9073 70.4963C41.1125 70.3727 41.1809 70.1871 41.0441 70.0016C40.8389 69.6924 40.7021 69.4451 40.4968 69.1359C40.36 68.8267 40.1548 68.5793 40.018 68.2701C39.7444 67.6517 39.4707 67.0952 39.1971 66.4768C38.9235 65.8584 38.6499 65.24 38.4446 64.5598C38.2394 63.9414 37.9658 63.323 37.7606 62.7046C37.5554 62.0862 37.3501 61.4679 37.1449 60.7876C37.0765 60.6021 37.0765 60.4166 37.0765 60.2311C37.0765 59.7982 37.2817 59.4272 37.5554 59.118C37.8974 58.8088 38.3078 58.6233 38.7867 58.6233H48.8425C49.6634 58.6233 50.4158 58.5614 51.0999 58.4378C51.784 58.3141 52.468 58.1286 53.1521 57.8812C53.7678 57.6338 54.4518 57.3246 54.9991 56.9536C55.6148 56.5826 56.2304 56.1497 56.7777 55.5932C57.3249 55.0984 57.8038 54.6037 58.2142 54.0472C58.6247 53.4906 58.9667 52.9341 59.2403 52.3157C59.514 51.6973 59.7192 51.0789 59.856 50.4605C59.9928 49.7803 60.0612 49.1001 60.0612 48.4199V44.2148C60.0612 42.1123 63.0711 42.1123 63.6184 43.5964V48.4199C63.6184 49.3474 63.5499 50.2132 63.3447 51.0789C63.1395 51.9447 62.8659 52.7486 62.5238 53.6143C62.1818 54.4182 61.703 55.1603 61.1557 55.9024C60.6085 56.6444 59.9928 57.3246 59.2403 57.943C58.5563 58.6233 57.7354 59.1798 56.9829 59.6745C56.162 60.1692 55.3411 60.5403 54.5202 60.9113C53.631 61.2205 52.6733 61.4679 51.784 61.6534C50.8263 61.8389 49.8686 61.9007 48.8425 61.9007H41.7282C41.6598 61.9007 41.6598 61.9007 41.5914 61.9007C41.3861 61.9626 41.2493 62.1481 41.3177 62.3336C41.4545 62.7046 41.5914 63.1375 41.7282 63.5704C41.9334 64.1269 42.207 64.7453 42.4806 65.3019C42.7543 65.8584 42.9595 66.415 43.2331 66.9097V66.9715C43.5068 67.5281 43.7804 68.0228 44.1224 68.5793C44.4644 69.074 44.8749 69.6306 45.2853 70.1253C45.6958 70.62 46.1746 71.1147 46.7219 71.6713C47.2691 72.166 47.8164 72.7225 48.5005 73.1554C48.8425 73.4646 49.0477 73.8356 49.1161 74.2685C49.1161 74.6395 48.9793 75.0724 48.7057 75.3816C48.5004 75.629 48.2268 75.7526 47.8848 75.8145C47.6112 75.8763 47.2691 75.8763 46.9271 75.8145C45.6274 75.5053 44.3276 75.1342 43.0963 74.7632C41.865 74.3922 40.6337 73.9593 39.4707 73.4646C38.3078 73.0317 37.1449 72.4752 36.0504 71.9805C34.9559 71.4239 33.8614 70.8674 32.8353 70.249C31.8092 69.6306 30.7831 69.0122 29.8254 68.332C28.8677 67.6517 27.91 66.9097 27.0207 66.1676C26.2682 65.5492 25.5158 64.869 24.8317 64.1269C24.1476 63.4467 23.3951 62.7046 22.7795 61.9626C22.7111 61.8389 22.5743 61.7771 22.4374 61.7771H14.7759C13.7498 61.7771 12.7921 61.7152 11.8344 61.5297C10.8767 61.3442 9.9874 61.0968 9.09811 60.7876C8.20882 60.4784 7.38794 60.0456 6.56706 59.5509C5.74617 59.0561 4.9937 58.4996 4.30963 57.8812C3.55716 57.201 2.94149 56.5207 2.39424 55.8405C1.84698 55.0985 1.36814 54.3564 1.0261 53.5525C0.684068 52.7486 0.410441 51.9447 0.205221 51.0789C0.0684068 50.3369 0 49.4711 0 48.5435V27.8275C0 26.8999 0.0684069 26.0342 0.273627 25.1684C0.478848 24.3027 0.752475 23.4988 1.09451 22.6949C1.43654 21.891 1.91539 21.1489 2.46265 20.4068C3.0099 19.6648 3.62556 18.9845 4.37804 18.3661C5.13051 17.6859 5.88299 17.1294 6.63546 16.6347C7.45635 16.1399 8.27723 15.7689 9.09811 15.3979C9.9874 15.0887 10.9451 14.8413 11.9028 14.6558C12.8605 14.4703 13.8182 14.4085 14.8443 14.4085C22.027 14.4085 24.4212 14.4085 31.604 14.4085C33.3141 14.8413 33.3825 17.7478 30.7831 17.7478ZM39.7444 20.9634C39.4023 21.5818 39.3339 22.4475 39.4023 23.2514C39.4707 23.6225 39.5392 23.9935 39.6076 24.3645C39.7444 24.7356 39.8812 25.1684 40.018 25.5395C40.2232 25.9105 40.4284 26.2815 40.6337 26.6526C40.8389 26.9618 41.1125 27.3328 41.3861 27.5801C42.0702 28.2604 42.8227 28.8169 43.712 29.0024C45.2853 29.4353 48.0216 28.1985 49.4581 27.7657C49.7318 27.7038 50.0738 27.7038 50.279 27.8275C50.5527 27.9512 50.7579 28.1367 50.8947 28.3841C50.8947 28.4459 50.8947 28.4459 50.9631 28.5077C51.0315 28.7551 51.1683 29.0024 51.2367 29.2498C51.9208 31.105 52.5365 32.8983 53.2889 34.3206C53.3573 34.4443 53.4257 34.6298 53.4941 34.7535V34.8153C53.6994 35.2482 53.973 35.681 54.2466 36.1139C54.5203 36.5468 54.7255 36.856 54.9991 37.1033C55.1359 37.227 55.3411 37.3507 55.5464 37.3507C55.7516 37.3507 56.0252 37.227 56.4356 36.9178C56.5725 36.7323 56.7777 36.6086 56.9829 36.4231C57.1197 36.2994 57.3249 36.1139 57.5986 35.8666C58.351 35.2482 59.4455 34.3206 59.856 33.8259L59.6508 33.764C57.3249 33.0838 57.4617 31.9707 57.5986 30.9813C57.667 30.6721 57.667 30.3629 57.5986 30.1774C57.5986 30.1155 57.5302 30.1774 57.3933 30.0537C57.3249 29.9919 57.2565 29.9919 57.1881 29.93C56.8461 29.6827 56.6409 29.4353 56.4356 29.1261C56.2304 28.7551 56.162 28.384 56.0936 28.013C56.0252 27.642 56.0936 27.2091 56.162 26.8381C56.2304 26.3434 56.3672 25.9105 56.504 25.5395C56.5725 25.3539 56.6409 25.2303 56.7777 25.1066C56.9145 24.9829 57.1197 24.9211 57.3249 24.8592C62.1134 23.8698 64.5761 24.6737 66.9019 25.4158C67.2439 25.5395 67.6544 25.6631 67.9964 25.7868C66.9703 24.8592 66.081 23.808 65.1917 22.633C63.7552 20.7779 62.5239 18.7372 61.4977 16.6347C60.4032 14.5321 59.5824 12.3678 58.9667 10.3271C58.5563 8.9048 58.2142 7.48251 58.0774 6.24573C57.0513 7.85354 55.6148 9.77054 53.5626 11.7494C51.6472 13.3572 40.4968 19.4174 39.7444 20.9634ZM68.3384 16.2018C68.4068 17.0057 68.1332 18.1188 67.6544 19.0464C67.3123 19.7266 66.9019 20.2832 66.4914 20.5924C67.3807 21.8291 68.4068 23.0041 69.4329 23.9935C70.459 24.9829 71.4851 25.7868 72.5797 26.4052H72.6481C72.6481 26.4052 72.7165 26.4052 72.7849 26.4052C72.8533 26.4052 72.9217 26.4052 72.9901 26.3434C73.0585 26.3434 73.1269 26.2815 73.1269 26.2815C73.3321 26.096 73.4689 25.8487 73.5374 25.5395C73.6742 25.1684 73.7426 24.7974 73.7426 24.3645C73.811 23.0041 73.5374 21.3344 72.9901 19.4792C72.3744 17.4386 71.4167 15.2124 70.3222 13.048C69.2277 10.9455 67.928 8.84296 66.6283 7.11147C65.3969 5.44182 64.0972 4.01953 62.9343 3.09194C62.5238 2.72091 62.045 2.47356 61.703 2.28804C61.3609 2.10252 61.0873 2.04068 60.8137 2.04068H60.7453C60.6769 2.10252 60.6085 2.16436 60.5401 2.28804C60.1296 3.21562 60.1296 4.69976 60.4032 6.49308C60.6769 8.28641 61.2925 10.3271 62.1134 12.4296C62.3186 12.3678 62.4554 12.3678 62.7291 12.3678C63.4815 12.3059 64.4392 12.3678 65.3969 12.677C66.3546 12.9862 67.3123 13.5427 67.8596 14.4703C68.0648 14.9032 68.27 15.4597 68.3384 16.2018ZM72.5112 28.5077C72.4428 28.5077 72.306 28.5077 72.2376 28.5077C72.1692 28.5077 72.0324 28.5077 71.964 28.4459L71.622 28.3841C70.8011 28.3222 69.9118 28.1367 69.0225 28.013H68.9541C67.9964 27.8275 67.1755 27.5801 66.3546 27.2709C64.4392 26.5907 62.387 25.8487 58.4878 26.5907C58.4194 26.7762 58.4194 26.8999 58.4194 27.0854C58.4194 27.2709 58.351 27.5183 58.4194 27.7038C58.4194 27.8275 58.4878 27.9512 58.4878 28.0749C58.4878 28.1367 58.5563 28.1985 58.5563 28.1985L58.6247 28.2604C59.1719 28.6314 59.4455 28.8169 59.6508 29.3116C59.856 29.7445 59.7876 30.1774 59.7876 30.6103C59.7192 31.0431 59.7192 31.476 60.2664 31.6615C60.9505 31.847 61.6346 32.0944 62.045 32.8983C62.1134 32.9601 62.1134 33.0838 62.1818 33.1456C62.1818 33.2075 62.1818 33.3312 62.1818 33.393C62.045 34.5679 60.1296 36.2376 59.0351 37.1652C58.8299 37.3507 58.6247 37.5362 58.4878 37.6599L58.4194 37.7217C58.2826 37.8454 58.1458 37.9691 58.009 38.0928V38.3401C57.1197 39.144 56.2304 39.4532 55.4779 39.4532C54.6571 39.4532 53.973 39.0822 53.3573 38.5256C52.9469 38.1546 52.6049 37.6599 52.2628 37.1652C51.9892 36.6705 51.7156 36.1757 51.4419 35.6192C51.3735 35.4955 51.3051 35.31 51.2367 35.1863C50.4842 33.7022 49.8002 31.9707 49.1845 30.1155C47.2007 30.8576 45.3537 31.6615 43.0963 31.0431C41.7966 30.6721 40.7021 29.93 39.7444 29.0024C39.4023 28.6314 39.0603 28.1985 38.7867 27.7657C38.5131 27.3328 38.2394 26.8999 38.0342 26.4052C37.829 25.9105 37.6238 25.4776 37.4869 24.9829C37.3501 24.4882 37.2133 23.9935 37.2133 23.4988C37.0765 22.262 37.2133 21.0871 37.6922 20.0976C39.1287 17.253 48.5689 13.5427 52.2628 9.83238C54.7255 7.29699 56.162 4.94711 57.1881 3.21562V3.15378C57.8038 2.16436 58.2826 1.36046 58.7615 0.803906C58.8983 0.680228 59.0351 0.55655 59.1719 0.432872C59.3087 0.309194 59.4455 0.247356 59.6508 0.123678C59.856 0.123678 59.9928 0.0618389 60.198 0C60.4032 0 60.6085 0 60.8137 0C61.3609 0.0618389 61.9082 0.185517 62.5238 0.432872C63.1395 0.680228 63.6868 1.05126 64.3024 1.54597C65.6022 2.59723 67.0387 4.08137 68.4068 5.87469C69.8434 7.72986 71.1431 9.89422 72.306 12.1204C73.4689 14.4085 74.495 16.7583 75.1791 18.9845C75.7948 21.0252 76.0684 22.8804 76 24.4264C75.9316 25.1066 75.7948 25.6631 75.5896 26.2197C75.3843 26.7762 75.1107 27.2091 74.7003 27.642L74.6319 27.7038L74.5635 27.8275C74.2898 28.013 74.0162 28.1367 73.7426 28.2604C73.4689 28.3841 73.1953 28.4459 72.9901 28.4459C72.9217 28.4459 72.7849 28.4459 72.7165 28.4459L72.5112 28.5077ZM44.9433 49.5329C45.8326 49.5329 46.5851 48.8527 46.5851 48.0488C46.5851 47.2449 45.8326 46.5647 44.9433 46.5647L27.3627 46.3173L24.0108 46.1318C23.1215 46.07 22.3006 46.6884 22.2322 47.5541C22.1638 48.358 22.8479 49.1001 23.8056 49.1619L27.1575 49.3474C27.2259 49.2856 43.4383 49.4711 44.9433 49.5329ZM39.676 40.1334C40.5653 40.1334 41.3177 39.4532 41.3177 38.6493C41.3177 37.8454 40.5653 37.1652 39.676 37.1652H15.9388C15.0495 37.1652 14.297 37.8454 14.297 38.6493C14.297 39.4532 15.0495 40.1334 15.9388 40.1334H39.676ZM32.288 31.1668C33.1773 31.1668 33.9298 30.4866 33.9298 29.6827C33.9298 28.8788 33.1773 28.1985 32.288 28.1985H15.9388C15.0495 28.1985 14.297 28.8788 14.297 29.6827C14.297 30.4866 15.0495 31.1668 15.9388 31.1668H32.288Z" fill="#4776E6"/>
</svg>
