<svg width="66" height="60" viewBox="0 0 66 60" fill="none" xmlns="http://www.w3.org/2000/svg">
<path d="M64.54 31.56H62.64C62.2828 19.8636 55.5948 10.0824 45.6236 5.72002H58.08V7.62002C58.08 7.92237 58.2001 8.21233 58.4139 8.42613C58.6277 8.63992 58.9177 8.76002 59.22 8.76002C59.5224 8.76002 59.8123 8.63992 60.0261 8.42613C60.2399 8.21233 60.36 7.92237 60.36 7.62002V1.54002C60.36 1.23768 60.2399 0.947714 60.0261 0.733923C59.8123 0.520131 59.5224 0.400024 59.22 0.400024C58.9177 0.400024 58.6277 0.520131 58.4139 0.733923C58.2001 0.947714 58.08 1.23768 58.08 1.54002V3.44002H37.56V1.54002C37.56 1.23768 37.4399 0.947714 37.2261 0.733923C37.0123 0.520131 36.7224 0.400024 36.42 0.400024H30.34C30.0377 0.400024 29.7477 0.520131 29.5339 0.733923C29.3201 0.947714 29.2 1.23768 29.2 1.54002V3.44002H8.68001V1.54002C8.68001 1.23768 8.5599 0.947714 8.34611 0.733923C8.13232 0.520131 7.84236 0.400024 7.54001 0.400024C7.23766 0.400024 6.9477 0.520131 6.73391 0.733923C6.52011 0.947714 6.40001 1.23768 6.40001 1.54002V7.62002C6.40001 7.92237 6.52011 8.21233 6.73391 8.42613C6.9477 8.63992 7.23766 8.76002 7.54001 8.76002C7.84236 8.76002 8.13232 8.63992 8.34611 8.42613C8.5599 8.21233 8.68001 7.92237 8.68001 7.62002V5.72002H21.0984C15.8742 7.94708 11.4133 11.65 8.26255 16.3748C5.11175 21.0997 3.40795 26.6412 3.36001 32.32H1.46001C1.15766 32.32 0.867697 32.4401 0.653906 32.6539C0.440114 32.8677 0.320007 33.1577 0.320007 33.46V39.54C0.320007 39.8424 0.440114 40.1323 0.653906 40.3461C0.867697 40.5599 1.15766 40.68 1.46001 40.68H7.54001C7.84236 40.68 8.13232 40.5599 8.34611 40.3461C8.5599 40.1323 8.68001 39.8424 8.68001 39.54V33.46C8.68001 33.1577 8.5599 32.8677 8.34611 32.6539C8.13232 32.4401 7.84236 32.32 7.54001 32.32H5.64001C5.7161 25.8064 8.1416 19.5394 12.4703 14.6716C16.7991 9.80389 22.7399 6.6629 29.2 5.82642V7.62002C29.2 7.92237 29.3201 8.21233 29.5339 8.42613C29.7477 8.63992 30.0377 8.76002 30.34 8.76002H32.3008L20.4676 38.7876C20.3676 39.0495 20.3676 39.339 20.4676 39.6008L24.7084 51.1452L24.64 58.5324C24.639 58.6828 24.6678 58.8318 24.7246 58.971C24.7814 59.1102 24.8652 59.2368 24.9712 59.3434C25.0772 59.4501 25.2032 59.5348 25.342 59.5925C25.4808 59.6503 25.6297 59.68 25.78 59.68H40.22C40.5224 59.68 40.8123 59.5599 41.0261 59.3461C41.2399 59.1323 41.36 58.8424 41.36 58.54V51.1832L46.5356 39.6692C46.5952 39.5286 46.6259 39.3774 46.6259 39.2246C46.6259 39.0719 46.5952 38.9207 46.5356 38.78L34.4592 8.76002H36.42C36.7224 8.76002 37.0123 8.63992 37.2261 8.42613C37.4399 8.21233 37.56 7.92237 37.56 7.62002V5.82642C50.48 7.59722 59.8964 18.2144 60.36 31.56H58.46C58.1577 31.56 57.8677 31.6801 57.6539 31.8939C57.4401 32.1077 57.32 32.3977 57.32 32.7V38.78C57.32 39.0824 57.4401 39.3723 57.6539 39.5861C57.8677 39.7999 58.1577 39.92 58.46 39.92H64.54C64.8424 39.92 65.1323 39.7999 65.3461 39.5861C65.5599 39.3723 65.68 39.0824 65.68 38.78V32.7C65.68 32.3977 65.5599 32.1077 65.3461 31.8939C65.1323 31.6801 64.8424 31.56 64.54 31.56ZM6.40001 38.4H2.60001V34.6H6.40001V38.4ZM26.92 57.4L26.9656 52.08H39.08V57.4H26.92ZM39.4828 49.8H26.6388L22.7476 39.2208L32.24 15.1364V35.74C32.24 36.0424 32.3601 36.3323 32.5739 36.5461C32.7877 36.7599 33.0777 36.88 33.38 36.88C33.6824 36.88 33.9723 36.7599 34.1861 36.5461C34.3999 36.3323 34.52 36.0424 34.52 35.74V15.0224L44.2556 39.16L39.4828 49.8ZM35.28 6.48002H31.48V2.68002H35.28V6.48002ZM63.4 37.64H59.6V33.84H63.4V37.64Z" fill="#4776E6"/>
</svg>
